<svg id="Layer_1" data-name="Layer 1" xmlns="http://www.w3.org/2000/svg" viewBox="0 0 19.4 19.4"><defs><style>.cls-1{fill:#e63946;}</style></defs><g id="Layer_2" data-name="Layer 2"><g id="Set_of_64_UI_Icons" data-name="Set of 64 UI Icons"><g id="Check_Mark_2" data-name="Check Mark 2"><path class="cls-1" d="M9.7,0A9.65,9.65,0,0,0,0,9.6v.1a9.65,9.65,0,0,0,9.6,9.7h.1A9.7,9.7,0,0,0,9.7,0ZM14,8.3,9.4,12.9a.91.91,0,0,1-1.2,0L5.9,10.6a1.09,1.09,0,0,1,0-1.5h0a1.09,1.09,0,0,1,1.5,0l1.3,1.3,3.6-3.6a1.09,1.09,0,0,1,1.5,0h0a1,1,0,0,1,.29,1.38A1.25,1.25,0,0,1,14,8.3Z" transform="translate(0 0)"/></g></g></g></svg>